<svg width="12" height="12" viewBox="0 0 12 12" fill="none" xmlns="http://www.w3.org/2000/svg">
<path d="M5.09808 0.791547C5.32656 0.0883642 6.32137 0.0883646 6.54985 0.791548L7.36619 3.30399C7.46837 3.61846 7.76142 3.83137 8.09208 3.83137H10.7338C11.4732 3.83137 11.7806 4.7775 11.1824 5.21209L9.04522 6.76486C8.77772 6.95922 8.66578 7.30372 8.76796 7.61819L9.5843 10.1306C9.81278 10.8338 9.00796 11.4186 8.40979 10.984L6.27259 9.43119C6.00508 9.23683 5.64285 9.23683 5.37534 9.43119L3.23813 10.984C2.63997 11.4186 1.83515 10.8338 2.06363 10.1306L2.87997 7.61819C2.98214 7.30372 2.87021 6.95922 2.6027 6.76486L0.465496 5.21209C-0.132666 4.7775 0.174749 3.83137 0.914119 3.83137H3.55585C3.88651 3.83137 4.17956 3.61846 4.28174 3.30399L5.09808 0.791547Z" fill="#F59E0B"/>
</svg>
