<svg width="17" height="14" viewBox="0 0 17 14" fill="none" xmlns="http://www.w3.org/2000/svg">
<path fill-rule="evenodd" clip-rule="evenodd" d="M0.988281 4.77868C0.988281 2.36979 3.1016 0.515015 5.58218 0.515015C6.86086 0.515015 7.98602 1.11457 8.79344 1.89036C9.60086 1.11457 10.726 0.515015 12.0047 0.515015C14.4853 0.515015 16.5986 2.36979 16.5986 4.77868C16.5986 6.4288 15.8949 7.87991 14.92 9.10652C13.9467 10.331 12.6737 11.3703 11.4548 12.2147C10.9892 12.5372 10.5182 12.8348 10.0871 13.0543C9.68234 13.2604 9.21692 13.4493 8.79344 13.4493C8.36996 13.4493 7.90454 13.2604 7.49977 13.0543C7.06871 12.8348 6.5977 12.5372 6.13213 12.2147C4.91321 11.3703 3.64014 10.331 2.6669 9.10652C1.69198 7.87991 0.988281 6.4288 0.988281 4.77868ZM5.58218 1.85304C3.72745 1.85304 2.32631 3.21703 2.32631 4.77868C2.32631 6.03062 2.85776 7.19623 3.71437 8.27398C4.57266 9.35386 5.72751 10.3066 6.8941 11.1148C7.33554 11.4207 7.75133 11.6809 8.10699 11.862C8.48895 12.0565 8.71018 12.1113 8.79344 12.1113C8.8767 12.1113 9.09793 12.0565 9.47989 11.862C9.83555 11.6809 10.2513 11.4207 10.6928 11.1148C11.8594 10.3066 13.0142 9.35386 13.8725 8.27398C14.7291 7.19623 15.2606 6.03062 15.2606 4.77868C15.2606 3.21703 13.8594 1.85304 12.0047 1.85304C10.9395 1.85304 9.94485 2.48943 9.3238 3.29715C9.19717 3.46185 9.0012 3.55837 8.79344 3.55837C8.58568 3.55837 8.38972 3.46185 8.26308 3.29715C7.64203 2.48943 6.64738 1.85304 5.58218 1.85304Z" fill="#323142"/>
</svg>
