<svg width="11" height="11" viewBox="0 0 11 11" fill="none" xmlns="http://www.w3.org/2000/svg">
<mask id="path-1-inside-1_1_10989" fill="white">
<path d="M10.8531 6.4368H6.34442V11.009H4.54517V6.4368H0.0576172V4.80689H4.54517V0.213501H6.34442V4.80689H10.8531V6.4368Z"/>
</mask>
<path d="M10.8531 6.4368H6.34442V11.009H4.54517V6.4368H0.0576172V4.80689H4.54517V0.213501H6.34442V4.80689H10.8531V6.4368Z" fill="black"/>
<path d="M10.8531 6.4368V9.35879H13.7751V6.4368H10.8531ZM6.34442 6.4368V3.51481H3.42243V6.4368H6.34442ZM6.34442 11.009V13.931H9.26641V11.009H6.34442ZM4.54517 11.009H1.62318V13.931H4.54517V11.009ZM4.54517 6.4368H7.46716V3.51481H4.54517V6.4368ZM0.0576172 6.4368H-2.86437V9.35879H0.0576172V6.4368ZM0.0576172 4.80689V1.8849H-2.86437V4.80689H0.0576172ZM4.54517 4.80689V7.72888H7.46716V4.80689H4.54517ZM4.54517 0.213501V-2.70849H1.62318V0.213501H4.54517ZM6.34442 0.213501H9.26641V-2.70849H6.34442V0.213501ZM6.34442 4.80689H3.42243V7.72888H6.34442V4.80689ZM10.8531 4.80689H13.7751V1.8849H10.8531V4.80689ZM10.8531 3.51481H6.34442V9.35879H10.8531V3.51481ZM3.42243 6.4368V11.009H9.26641V6.4368H3.42243ZM6.34442 8.08703H4.54517V13.931H6.34442V8.08703ZM7.46716 11.009V6.4368H1.62318V11.009H7.46716ZM4.54517 3.51481H0.0576172V9.35879H4.54517V3.51481ZM2.97961 6.4368V4.80689H-2.86437V6.4368H2.97961ZM0.0576172 7.72888H4.54517V1.8849H0.0576172V7.72888ZM7.46716 4.80689V0.213501H1.62318V4.80689H7.46716ZM4.54517 3.13549H6.34442V-2.70849H4.54517V3.13549ZM3.42243 0.213501V4.80689H9.26641V0.213501H3.42243ZM6.34442 7.72888H10.8531V1.8849H6.34442V7.72888ZM7.93114 4.80689V6.4368H13.7751V4.80689H7.93114Z" fill="white" mask="url(#path-1-inside-1_1_10989)"/>
</svg>
